<svg width="42" height="42" viewBox="0 0 42 42" fill="none" xmlns="http://www.w3.org/2000/svg">
<rect width="42" height="42" rx="8" fill="#838181"/>
<path d="M21.0067 11.0001C21.5694 10.9958 22.132 11.2429 22.5614 11.7372L25.1614 14.6657C25.4454 14.9915 25.4454 15.5229 25.1614 15.8486C25.0964 15.9255 25.0171 15.987 24.9285 16.0291C24.84 16.0712 24.7442 16.0929 24.6474 16.0929C24.5505 16.0929 24.4548 16.0712 24.3662 16.0291C24.2777 15.987 24.1984 15.9255 24.1334 15.8486L21.6667 13.0729V24.4914C21.6667 24.9299 21.368 25.2857 21 25.2857C20.632 25.2857 20.3334 24.9299 20.3334 24.4914V13.12L17.9067 15.8486C17.8417 15.9253 17.7625 15.9866 17.6741 16.0285C17.5857 16.0704 17.49 16.0921 17.3934 16.0921C17.2967 16.0921 17.2011 16.0704 17.1127 16.0285C17.0243 15.9866 16.945 15.9253 16.88 15.8486C16.7428 15.6864 16.6667 15.4754 16.6667 15.2564C16.6667 15.0375 16.7428 14.8265 16.88 14.6643L19.48 11.7358C19.6733 11.5087 19.9078 11.3264 20.1692 11.1999C20.4306 11.0734 20.7133 11.0054 21 11.0001H21.0067ZM15.24 19.5714C14.6093 19.5714 14.0667 19.9914 13.944 20.5757L12.3587 28.0756C12.3436 28.1566 12.3351 28.2388 12.3333 28.3213C12.3333 29.0113 12.9253 29.5713 13.6533 29.5713H28.3467C28.4338 29.5713 28.5201 29.5632 28.6054 29.547C29.3214 29.4113 29.7854 28.7528 29.6427 28.0756L28.0561 20.5757C27.9334 19.9914 27.3907 19.5714 26.7627 19.5714H15.24ZM17.6667 18.1429V19.5714H24.3334V18.1429H26.7667C28.0281 18.1429 29.1134 19.0086 29.3614 20.21L30.9481 27.9242C31.2347 29.3171 30.3054 30.6713 28.8734 30.9499C28.702 30.9847 28.5278 31.0015 28.3534 30.9999H13.6467C12.184 30.9999 11 29.8485 11 28.4285C11 28.258 11.0173 28.0899 11.052 27.9242L12.6387 20.21C12.8853 19.0086 13.972 18.1429 15.232 18.1429H17.6667Z" fill="#98EA25"/>
</svg>
